<svg viewBox="0 0 576 512" xmlns="http://www.w3.org/2000/svg" xmlns:xlink="http://www.w3.org/1999/xlink"><style>:root&gt;svg{display:none}:root&gt;svg:target{display:block}</style><svg viewBox="0 0 15.698 8.706" id="arrow" xmlns="http://www.w3.org/2000/svg"><path d="M11.354 0l-.708.706 3.14 3.147H0v1h13.786L10.646 8l.708.706 4.344-4.353z"/></svg><svg aria-hidden="true" data-prefix="fas" data-icon="shopping-cart" class="bsvg-inline--fa bfa-shopping-cart bfa-w-18" viewBox="0 0 576 512" id="corb" xmlns="http://www.w3.org/2000/svg"><path d="M528.12 301.319l47.273-208C578.806 78.301 567.391 64 551.99 64H159.208l-9.166-44.81C147.758 8.021 137.93 0 126.529 0H24C10.745 0 0 10.745 0 24v16c0 13.255 10.745 24 24 24h69.883l70.248 343.435C147.325 417.1 136 435.222 136 456c0 30.928 25.072 56 56 56s56-25.072 56-56c0-15.674-6.447-29.835-16.824-40h209.647C430.447 426.165 424 440.326 424 456c0 30.928 25.072 56 56 56s56-25.072 56-56c0-22.172-12.888-41.332-31.579-50.405l5.517-24.276c3.413-15.018-8.002-29.319-23.403-29.319H218.117l-6.545-32h293.145c11.206 0 20.92-7.754 23.403-18.681z"/></svg><svg viewBox="0 0 16 16" id="left" xmlns="http://www.w3.org/2000/svg"><path d="M6 6V3L0 8l6 5v-3c4-1 7-.5 10 2-2-5-5.5-6-10-6z"/></svg><svg viewBox="0 0 17 20" id="play" xmlns="http://www.w3.org/2000/svg"><path d="M1.407 1.175v17.237l14.005-8.618L1.407 1.175z"/></svg><svg viewBox="0 0 16 16" id="right" xmlns="http://www.w3.org/2000/svg"><path d="M10 6C5.5 6 2 7 0 12c3-2.5 6-3 10-2v3l6-5-6-5v3z"/></svg><svg aria-hidden="true" data-prefix="fas" data-icon="search" class="fsvg-inline--fa ffa-search ffa-w-16" viewBox="0 0 512 512" id="search" xmlns="http://www.w3.org/2000/svg"><path d="M505 442.7L405.3 343c-4.5-4.5-10.6-7-17-7H372c27.6-35.3 44-79.7 44-128C416 93.1 322.9 0 208 0S0 93.1 0 208s93.1 208 208 208c48.3 0 92.7-16.4 128-44v16.3c0 6.4 2.5 12.5 7 17l99.7 99.7c9.4 9.4 24.6 9.4 33.9 0l28.3-28.3c9.4-9.4 9.4-24.6.1-34zM208 336c-70.7 0-128-57.2-128-128 0-70.7 57.2-128 128-128 70.7 0 128 57.2 128 128 0 70.7-57.2 128-128 128z"/></svg><svg aria-hidden="true" data-prefix="far" data-icon="user" class="gsvg-inline--fa gfa-user gfa-w-14" viewBox="0 0 448 512" id="user" xmlns="http://www.w3.org/2000/svg"><path d="M313.6 304c-28.7 0-42.5 16-89.6 16-47.1 0-60.8-16-89.6-16C60.2 304 0 364.2 0 438.4V464c0 26.5 21.5 48 48 48h352c26.5 0 48-21.5 48-48v-25.6c0-74.2-60.2-134.4-134.4-134.4zM400 464H48v-25.6c0-47.6 38.8-86.4 86.4-86.4 14.6 0 38.3 16 89.6 16 51.7 0 74.9-16 89.6-16 47.6 0 86.4 38.8 86.4 86.4V464zM224 288c79.5 0 144-64.5 144-144S303.5 0 224 0 80 64.5 80 144s64.5 144 144 144zm0-240c52.9 0 96 43.1 96 96s-43.1 96-96 96-96-43.1-96-96 43.1-96 96-96z"/></svg></svg>